<?xml version="1.0" encoding="UTF-8"?>
<!DOCTYPE svg PUBLIC "-//W3C//DTD SVG 1.1//EN" "http://www.w3.org/Graphics/SVG/1.1/DTD/svg11.dtd">
<svg version="1.2" width="70mm" height="70mm" viewBox="0 0 7000 7000" preserveAspectRatio="xMidYMid" fill-rule="evenodd" stroke-width="28.222" stroke-linejoin="round" xmlns="http://www.w3.org/2000/svg" xmlns:ooo="http://xml.openoffice.org/svg/export" xmlns:xlink="http://www.w3.org/1999/xlink" xmlns:presentation="http://sun.com/xmlns/staroffice/presentation" xmlns:smil="http://www.w3.org/2001/SMIL20/" xmlns:anim="urn:oasis:names:tc:opendocument:xmlns:animation:1.0" xml:space="preserve">
 <defs class="ClipPathGroup">
  <clipPath id="presentation_clip_path" clipPathUnits="userSpaceOnUse">
   <rect x="0" y="0" width="7000" height="7000"/>
  </clipPath>
  <clipPath id="presentation_clip_path_shrink" clipPathUnits="userSpaceOnUse">
   <rect x="7" y="7" width="6986" height="6986"/>
  </clipPath>
 </defs>
 <defs class="TextShapeIndex">
  <g ooo:slide="id1" ooo:id-list="id3 id4 id5 id6 id7 id8 id9 id10 id11 id12 id13 id14"/>
 </defs>
 <defs class="EmbeddedBulletChars">
  <g id="bullet-char-template-57356" transform="scale(0.00048828125,-0.00048828125)">
   <path d="M 580,1141 L 1163,571 580,0 -4,571 580,1141 Z"/>
  </g>
  <g id="bullet-char-template-57354" transform="scale(0.00048828125,-0.00048828125)">
   <path d="M 8,1128 L 1137,1128 1137,0 8,0 8,1128 Z"/>
  </g>
  <g id="bullet-char-template-10146" transform="scale(0.00048828125,-0.00048828125)">
   <path d="M 174,0 L 602,739 174,1481 1456,739 174,0 Z M 1358,739 L 309,1346 659,739 1358,739 Z"/>
  </g>
  <g id="bullet-char-template-10132" transform="scale(0.00048828125,-0.00048828125)">
   <path d="M 2015,739 L 1276,0 717,0 1260,543 174,543 174,936 1260,936 717,1481 1274,1481 2015,739 Z"/>
  </g>
  <g id="bullet-char-template-10007" transform="scale(0.00048828125,-0.00048828125)">
   <path d="M 0,-2 C -7,14 -16,27 -25,37 L 356,567 C 262,823 215,952 215,954 215,979 228,992 255,992 264,992 276,990 289,987 310,991 331,999 354,1012 L 381,999 492,748 772,1049 836,1024 860,1049 C 881,1039 901,1025 922,1006 886,937 835,863 770,784 769,783 710,716 594,584 L 774,223 C 774,196 753,168 711,139 L 727,119 C 717,90 699,76 672,76 641,76 570,178 457,381 L 164,-76 C 142,-110 111,-127 72,-127 30,-127 9,-110 8,-76 1,-67 -2,-52 -2,-32 -2,-23 -1,-13 0,-2 Z"/>
  </g>
  <g id="bullet-char-template-10004" transform="scale(0.00048828125,-0.00048828125)">
   <path d="M 285,-33 C 182,-33 111,30 74,156 52,228 41,333 41,471 41,549 55,616 82,672 116,743 169,778 240,778 293,778 328,747 346,684 L 369,508 C 377,444 397,411 428,410 L 1163,1116 C 1174,1127 1196,1133 1229,1133 1271,1133 1292,1118 1292,1087 L 1292,965 C 1292,929 1282,901 1262,881 L 442,47 C 390,-6 338,-33 285,-33 Z"/>
  </g>
  <g id="bullet-char-template-9679" transform="scale(0.00048828125,-0.00048828125)">
   <path d="M 813,0 C 632,0 489,54 383,161 276,268 223,411 223,592 223,773 276,916 383,1023 489,1130 632,1184 813,1184 992,1184 1136,1130 1245,1023 1353,916 1407,772 1407,592 1407,412 1353,268 1245,161 1136,54 992,0 813,0 Z"/>
  </g>
  <g id="bullet-char-template-8226" transform="scale(0.00048828125,-0.00048828125)">
   <path d="M 346,457 C 273,457 209,483 155,535 101,586 74,649 74,723 74,796 101,859 155,911 209,963 273,989 346,989 419,989 480,963 531,910 582,859 608,796 608,723 608,648 583,586 532,535 482,483 420,457 346,457 Z"/>
  </g>
  <g id="bullet-char-template-8211" transform="scale(0.00048828125,-0.00048828125)">
   <path d="M -4,459 L 1135,459 1135,606 -4,606 -4,459 Z"/>
  </g>
  <g id="bullet-char-template-61548" transform="scale(0.00048828125,-0.00048828125)">
   <path d="M 173,740 C 173,903 231,1043 346,1159 462,1274 601,1332 765,1332 928,1332 1067,1274 1183,1159 1299,1043 1357,903 1357,740 1357,577 1299,437 1183,322 1067,206 928,148 765,148 601,148 462,206 346,322 231,437 173,577 173,740 Z"/>
  </g>
 </defs>
 <g>
  <g id="id2" class="Master_Slide">
   <g id="bg-id2" class="Background"/>
   <g id="bo-id2" class="BackgroundObjects"/>
  </g>
 </g>
 <g class="SlideGroup">
  <g>
   <g id="container-id1">
    <g id="id1" class="Slide" clip-path="url(#presentation_clip_path)">
     <g class="Page">
      <g class="com.sun.star.drawing.ClosedBezierShape">
       <g id="id3">
        <rect class="BoundingBox" stroke="none" fill="none" x="281" y="246" width="6496" height="6496"/>
        <path fill="rgb(35,31,32)" stroke="none" d="M 5941,2889 C 5843,2921 5738,2869 5706,2771 5674,2674 5727,2568 5824,2536 5922,2504 6027,2557 6059,2654 6091,2752 6039,2857 5941,2889 Z M 5271,5123 L 4842,5058 C 4740,5042 4645,5112 4630,5214 L 4564,5643 C 4473,5687 4378,5726 4279,5759 3677,5959 3049,5904 2516,5653 L 2445,5226 C 2438,5177 2410,5134 2370,5105 2330,5076 2280,5065 2232,5073 L 1803,5143 C 1565,4895 1377,4592 1261,4244 1146,3896 1116,3541 1159,3198 L 1545,2999 C 1589,2976 1622,2937 1637,2890 1652,2843 1648,2792 1625,2748 L 1426,2364 C 1705,1844 2174,1426 2777,1226 2876,1194 2975,1169 3075,1149 L 3385,1455 C 3458,1527 3576,1526 3648,1453 L 3954,1144 C 4647,1271 5266,1702 5617,2338 L 5422,2727 C 5399,2772 5397,2823 5412,2869 5427,2914 5459,2953 5505,2976 L 5893,3171 C 5991,3893 5752,4608 5271,5123 Z M 5108,5641 C 5025,5702 4908,5684 4848,5602 4787,5519 4804,5402 4887,5342 4970,5281 5086,5298 5147,5381 5208,5464 5190,5580 5108,5641 Z M 2232,5616 C 2172,5700 2056,5719 1973,5659 1889,5599 1870,5483 1930,5400 1990,5316 2106,5297 2190,5357 2273,5417 2292,5533 2232,5616 Z M 987,2683 C 1018,2585 1123,2531 1221,2562 1319,2593 1373,2698 1342,2796 1310,2894 1206,2948 1108,2917 1010,2886 956,2781 987,2683 Z M 3513,826 C 3616,826 3700,909 3700,1011 3701,1114 3618,1198 3515,1199 3413,1199 3329,1116 3328,1014 3328,911 3410,827 3513,826 Z M 6735,3647 L 6473,3463 C 6473,3434 6472,3404 6470,3375 L 6724,3176 C 6749,3156 6763,3124 6759,3091 6754,3059 6734,3031 6704,3018 L 6410,2888 C 6404,2859 6397,2831 6391,2803 L 6600,2559 C 6622,2534 6629,2500 6618,2469 6608,2438 6582,2414 6550,2407 L 6236,2337 C 6225,2310 6213,2283 6201,2257 L 6359,1977 C 6375,1949 6375,1914 6359,1886 6343,1857 6313,1839 6281,1839 L 5959,1831 C 5943,1807 5926,1783 5909,1759 L 6009,1454 C 6020,1423 6013,1389 5991,1364 5970,1340 5937,1328 5905,1333 L 5588,1389 C 5567,1369 5546,1349 5525,1329 L 5564,1009 C 5568,977 5555,945 5529,925 5503,905 5469,900 5438,911 L 5137,1028 C 5113,1012 5089,997 5065,982 L 5041,660 C 5038,627 5019,598 4989,584 4960,569 4926,571 4898,588 L 4625,761 C 4599,751 4572,741 4545,731 L 4459,419 C 4451,388 4426,363 4394,355 4363,346 4329,354 4305,377 L 4072,599 C 4044,594 4015,589 3987,585 L 3841,297 C 3827,268 3798,248 3765,246 3733,244 3701,259 3682,285 L 3498,548 C 3469,548 3439,549 3410,550 L 3211,297 C 3191,272 3159,258 3126,262 3094,266 3066,287 3053,317 L 2923,611 C 2894,617 2866,623 2838,630 L 2594,420 C 2569,399 2535,392 2504,402 2473,413 2449,439 2442,470 L 2372,784 C 2345,796 2319,807 2292,819 L 2012,662 C 1984,645 1949,645 1921,662 1892,678 1874,708 1874,740 L 1866,1062 C 1842,1078 1818,1095 1794,1112 L 1489,1011 C 1458,1001 1424,1008 1399,1029 1375,1051 1363,1084 1369,1116 L 1424,1433 C 1404,1454 1383,1475 1364,1496 L 1044,1457 C 1012,1453 980,1466 960,1492 941,1516 935,1549 945,1578 945,1580 946,1581 946,1583 L 1063,1884 C 1047,1908 1032,1932 1017,1956 L 695,1980 C 662,1983 633,2002 619,2031 607,2053 606,2079 614,2102 616,2109 619,2116 623,2123 L 796,2396 C 786,2422 775,2449 766,2475 L 454,2562 C 423,2571 398,2595 390,2627 385,2645 385,2664 391,2681 395,2694 402,2706 412,2716 L 634,2949 C 629,2977 624,3006 619,3034 L 332,3179 C 303,3194 283,3223 281,3256 280,3269 282,3281 285,3293 292,3311 304,3328 320,3339 L 583,3524 C 583,3553 584,3582 585,3612 L 332,3810 C 306,3830 293,3862 297,3894 298,3901 299,3906 301,3912 309,3937 328,3957 352,3968 L 646,4098 C 652,4127 658,4155 665,4183 L 455,4427 C 434,4452 427,4486 437,4517 448,4548 474,4571 505,4578 L 819,4649 C 831,4676 842,4702 854,4729 L 696,5008 C 683,5031 681,5059 689,5083 691,5089 693,5095 696,5100 713,5128 742,5146 775,5147 L 1096,5155 C 1113,5179 1129,5203 1147,5227 L 1046,5531 C 1040,5551 1040,5571 1046,5590 1050,5601 1056,5612 1064,5621 1086,5646 1118,5658 1151,5652 L 1468,5597 C 1489,5617 1509,5637 1531,5657 L 1492,5976 C 1490,5990 1491,6004 1496,6017 1501,6034 1512,6049 1527,6061 1553,6081 1587,6086 1617,6074 L 1919,5958 C 1943,5974 1967,5989 1991,6004 L 2015,6326 C 2016,6334 2017,6341 2020,6348 2027,6371 2044,6391 2066,6402 2095,6417 2130,6415 2158,6397 L 2431,6225 C 2457,6235 2484,6245 2510,6255 L 2597,6566 C 2597,6568 2598,6569 2598,6571 2608,6600 2632,6623 2662,6631 2693,6640 2727,6631 2750,6609 L 2984,6387 C 3012,6392 3041,6397 3069,6401 L 3214,6689 C 3229,6718 3259,6737 3291,6740 3324,6742 3355,6727 3374,6701 L 3559,6438 C 3588,6438 3617,6437 3647,6436 L 3845,6689 C 3865,6714 3897,6727 3929,6724 3962,6720 3990,6699 4003,6669 L 4133,6375 C 4161,6369 4190,6363 4218,6356 L 4462,6566 C 4487,6587 4521,6594 4552,6583 4583,6573 4606,6547 4613,6515 L 4684,6201 C 4710,6190 4737,6178 4764,6166 L 5043,6324 C 5072,6340 5107,6340 5135,6324 5163,6308 5181,6278 5182,6246 L 5190,5924 C 5214,5908 5238,5891 5262,5874 L 5567,5974 C 5597,5985 5632,5978 5656,5956 5681,5935 5693,5902 5687,5870 L 5632,5553 C 5652,5532 5672,5511 5692,5490 L 6011,5529 C 6044,5533 6076,5520 6096,5494 6116,5468 6121,5434 6109,5403 L 5993,5102 C 6009,5078 6024,5054 6039,5030 L 6361,5006 C 6393,5003 6422,4984 6437,4955 6452,4925 6450,4891 6432,4863 L 6259,4590 C 6270,4564 6280,4537 6290,4511 L 6601,4424 C 6633,4415 6657,4390 6666,4359 6675,4328 6666,4294 6644,4270 L 6422,4037 C 6427,4009 6432,3980 6436,3952 L 6724,3806 C 6753,3792 6772,3763 6775,3730 6777,3698 6762,3666 6735,3647 Z"/>
       </g>
      </g>
      <g class="com.sun.star.drawing.ClosedBezierShape">
       <g id="id4">
        <rect class="BoundingBox" stroke="none" fill="none" x="1872" y="5306" width="424" height="422"/>
        <path fill="rgb(5,3,1)" stroke="none" d="M 2294,5516 C 2294,5632 2200,5727 2084,5727 1968,5727 1872,5632 1872,5516 1872,5400 1968,5306 2084,5306 2200,5306 2294,5400 2294,5516 Z"/>
       </g>
      </g>
      <g class="com.sun.star.drawing.ClosedBezierShape">
       <g id="id5">
        <rect class="BoundingBox" stroke="none" fill="none" x="1978" y="6055" width="423" height="424"/>
        <path fill="rgb(255,255,255)" stroke="none" d="M 2400,6267 C 2400,6383 2305,6477 2189,6477 2072,6477 1978,6383 1978,6267 1978,6150 2072,6055 2189,6055 2305,6055 2400,6150 2400,6267 Z"/>
       </g>
      </g>
      <g class="com.sun.star.drawing.ClosedBezierShape">
       <g id="id6">
        <rect class="BoundingBox" stroke="none" fill="none" x="4624" y="490" width="423" height="423"/>
        <path fill="rgb(255,255,255)" stroke="none" d="M 5046,702 C 5046,818 4951,912 4835,912 4718,912 4624,818 4624,702 4624,584 4718,490 4835,490 4951,490 5046,584 5046,702 Z"/>
       </g>
      </g>
      <g class="com.sun.star.drawing.ClosedBezierShape">
       <g id="id7">
        <rect class="BoundingBox" stroke="none" fill="none" x="1655" y="4860" width="1384" height="965"/>
        <path fill="rgb(5,3,1)" stroke="none" d="M 2994,5817 C 2912,5801 2840,5795 2777,5789 2667,5779 2573,5771 2480,5719 2413,5681 2368,5619 2324,5559 2292,5515 2262,5473 2225,5443 2122,5355 1983,5274 1862,5204 1804,5170 1749,5138 1706,5110 L 1698,5105 1693,5096 C 1640,4984 1652,4925 1670,4896 1685,4873 1708,4860 1735,4860 1738,4860 1741,4860 1744,4861 1823,4869 1951,4933 2075,4995 2150,5032 2222,5068 2259,5079 2384,5114 2404,5170 2421,5219 2433,5253 2444,5284 2495,5321 2544,5354 2611,5381 2682,5408 2859,5478 3061,5557 3035,5786 L 3031,5824 2994,5817 Z"/>
       </g>
      </g>
      <g class="com.sun.star.drawing.ClosedBezierShape">
       <g id="id8">
        <rect class="BoundingBox" stroke="none" fill="none" x="1619" y="4824" width="1455" height="1043"/>
        <path fill="rgb(255,255,255)" stroke="none" d="M 1735,4825 C 1696,4825 1661,4844 1641,4877 1606,4931 1614,5009 1662,5111 L 1670,5129 1687,5139 C 1730,5168 1785,5200 1844,5234 1964,5304 2100,5383 2203,5468 2236,5497 2265,5536 2295,5578 2341,5642 2389,5707 2463,5750 2562,5806 2660,5814 2773,5824 2836,5830 2907,5836 2987,5851 L 3062,5866 3070,5790 C 3099,5533 2865,5442 2694,5375 2626,5347 2561,5322 2515,5291 2474,5262 2466,5239 2455,5207 2431,5140 2401,5082 2269,5045 2234,5035 2160,4999 2090,4963 1964,4900 1833,4835 1748,4825 1744,4825 1739,4825 1735,4825 Z M 1735,4895 C 1737,4895 1738,4895 1740,4896 1862,4909 2148,5084 2250,5113 2441,5166 2337,5253 2475,5349 2651,5470 3032,5495 3000,5782 2777,5739 2635,5766 2497,5687 2391,5628 2341,5493 2248,5414 2089,5282 1854,5165 1725,5080 1664,4951 1693,4895 1735,4895 Z"/>
       </g>
      </g>
      <g class="com.sun.star.drawing.ClosedBezierShape">
       <g id="id9">
        <rect class="BoundingBox" stroke="none" fill="none" x="910" y="5167" width="2309" height="1673"/>
        <path fill="rgb(5,3,1)" stroke="none" d="M 1174,5616 C 1194,5616 1223,5622 1254,5629 1201,5563 1163,5521 1139,5503 1135,5544 1155,5601 1169,5616 1171,5616 1172,5616 1174,5616 Z M 1803,5977 C 1828,6013 1855,6053 1887,6084 1897,6075 1918,6048 1935,6020 1906,5983 1836,5959 1788,5955 1793,5962 1798,5970 1803,5977 Z M 2266,6471 C 2276,6473 2287,6474 2298,6474 2358,6474 2414,6441 2474,6407 2488,6399 2503,6391 2518,6383 2520,6376 2517,6364 2514,6356 2486,6280 2349,6168 2271,6157 2246,6161 2131,6185 2032,6237 2039,6293 2190,6433 2266,6471 Z M 2540,6839 C 2370,6839 2251,6789 2118,6662 1905,6538 1802,6363 1740,6259 1723,6230 1703,6197 1695,6191 L 1689,6187 1632,6135 C 1487,6003 1373,5900 1247,5837 1225,5826 1207,5826 1184,5826 1140,5826 1085,5825 1016,5746 L 1002,5730 C 949,5667 876,5582 928,5442 932,5415 947,5342 984,5313 988,5310 994,5302 1000,5294 1018,5269 1046,5232 1099,5231 1146,5187 1200,5167 1270,5167 1303,5167 1340,5172 1384,5181 L 1459,5196 1399,5243 C 1387,5252 1377,5260 1367,5266 1335,5288 1324,5296 1320,5326 1329,5336 1337,5347 1345,5357 1388,5412 1425,5459 1482,5494 1826,5623 2165,5693 2413,5744 L 2417,5745 C 2445,5748 2491,5750 2545,5752 2708,5759 2931,5769 3031,5832 L 3037,5836 C 3119,5888 3289,5996 3185,6162 3157,6207 3127,6254 3098,6300 3001,6452 2909,6596 2872,6686 2815,6822 2685,6831 2615,6836 L 2608,6836 C 2584,6838 2561,6839 2540,6839 Z"/>
       </g>
      </g>
      <g class="com.sun.star.drawing.ClosedBezierShape">
       <g id="id10">
        <rect class="BoundingBox" stroke="none" fill="none" x="875" y="5132" width="2380" height="1744"/>
        <path fill="rgb(255,255,255)" stroke="none" d="M 2078,6254 C 2158,6217 2243,6198 2271,6192 2345,6207 2458,6312 2480,6363 2472,6368 2464,6372 2456,6377 2401,6408 2349,6438 2298,6438 2291,6438 2284,6438 2277,6437 2209,6402 2110,6306 2078,6254 Z M 1886,6029 C 1882,6025 1878,6020 1874,6015 1880,6018 1885,6021 1889,6024 1888,6026 1887,6028 1886,6029 Z M 1270,5132 C 1195,5132 1135,5152 1084,5197 1023,5203 990,5248 971,5273 968,5278 963,5285 960,5287 917,5322 900,5396 893,5433 837,5590 924,5692 976,5753 980,5758 984,5763 989,5768 1063,5854 1123,5861 1183,5861 1206,5861 1218,5862 1232,5869 1353,5928 1466,6030 1608,6161 1627,6178 1646,6195 1666,6213 L 1671,6218 1673,6219 C 1681,6228 1697,6255 1710,6277 1769,6377 1878,6561 2097,6690 2236,6822 2361,6874 2540,6874 2562,6874 2586,6873 2610,6872 L 2617,6871 C 2689,6866 2839,6856 2904,6699 2940,6612 3036,6463 3128,6319 3157,6272 3187,6226 3215,6181 3337,5984 3133,5855 3056,5806 L 3049,5802 C 2950,5739 2763,5726 2546,5717 2495,5714 2451,5713 2421,5709 L 2420,5709 C 2174,5659 1838,5590 1498,5462 1448,5431 1413,5387 1373,5336 1368,5330 1364,5324 1359,5318 1363,5312 1371,5307 1387,5295 1397,5288 1408,5281 1420,5271 L 1541,5178 1391,5146 C 1345,5137 1305,5132 1270,5132 Z M 2298,6509 C 2386,6509 2462,6452 2541,6410 2608,6339 2392,6134 2270,6121 2270,6121 2120,6146 1999,6215 1972,6295 2181,6470 2254,6504 2269,6507 2284,6509 2298,6509 Z M 1884,6121 C 1921,6121 1976,6018 1976,6018 1946,5952 1837,5918 1776,5918 1743,5918 1725,5928 1740,5948 1776,5994 1815,6067 1871,6116 1875,6120 1879,6121 1884,6121 Z M 1164,5652 C 1165,5652 1165,5652 1166,5652 1168,5651 1170,5651 1173,5651 1208,5651 1289,5676 1319,5676 1329,5676 1333,5673 1327,5665 1277,5600 1170,5460 1126,5460 1119,5460 1113,5464 1110,5472 1087,5532 1126,5652 1164,5652 Z M 1270,5203 C 1300,5203 1335,5207 1377,5215 1323,5257 1287,5265 1284,5337 1343,5409 1387,5478 1467,5526 1816,5658 2163,5729 2410,5779 2538,5793 2889,5784 3012,5861 3092,5913 3242,6003 3155,6143 3034,6338 2889,6552 2839,6672 2789,6793 2672,6797 2605,6801 2582,6803 2560,6804 2540,6804 2370,6804 2261,6750 2140,6633 1845,6464 1764,6190 1713,6160 1536,6000 1409,5877 1263,5805 1184,5767 1137,5830 1043,5723 989,5658 911,5584 962,5451 962,5451 975,5365 1005,5341 1031,5320 1049,5267 1099,5267 1103,5267 1108,5267 1112,5268 1152,5226 1197,5203 1270,5203 Z"/>
       </g>
      </g>
      <g class="com.sun.star.drawing.ClosedBezierShape">
       <g id="id11">
        <rect class="BoundingBox" stroke="none" fill="none" x="4030" y="1165" width="1384" height="965"/>
        <path fill="rgb(5,3,1)" stroke="none" d="M 5333,2129 C 5330,2129 5326,2129 5323,2128 5244,2120 5117,2056 4994,1994 4918,1956 4847,1921 4808,1910 4683,1875 4663,1819 4646,1770 4634,1736 4623,1704 4572,1669 4524,1636 4457,1609 4386,1581 4208,1512 4007,1431 4032,1203 L 4036,1165 4074,1172 C 4156,1188 4227,1194 4291,1200 4400,1209 4495,1218 4587,1270 4655,1307 4700,1370 4744,1430 4775,1475 4805,1516 4843,1547 4947,1635 5085,1715 5206,1785 5264,1819 5319,1851 5362,1879 L 5370,1884 5374,1893 C 5427,2005 5416,2064 5397,2093 5383,2116 5359,2129 5333,2129 Z"/>
       </g>
      </g>
      <g class="com.sun.star.drawing.ClosedBezierShape">
       <g id="id12">
        <rect class="BoundingBox" stroke="none" fill="none" x="3995" y="1123" width="1455" height="1042"/>
        <path fill="rgb(255,255,255)" stroke="none" d="M 4005,1123 L 3997,1199 C 3969,1454 4202,1546 4373,1614 4442,1641 4507,1667 4552,1698 4594,1727 4602,1750 4613,1782 4636,1849 4667,1907 4799,1944 4833,1954 4906,1990 4977,2026 5104,2089 5234,2154 5319,2163 5324,2164 5328,2164 5333,2164 5372,2164 5406,2145 5427,2112 5461,2058 5454,1979 5406,1878 L 5397,1860 5381,1849 C 5337,1821 5282,1789 5224,1755 5104,1685 4966,1606 4865,1519 4831,1491 4803,1452 4772,1410 4726,1346 4679,1280 4605,1239 4505,1183 4407,1175 4294,1165 4231,1159 4161,1153 4081,1138 L 4005,1123 Z M 4067,1207 C 4290,1250 4432,1223 4570,1301 4677,1360 4726,1495 4819,1574 4977,1707 5213,1824 5342,1908 5404,2038 5374,2094 5333,2094 5331,2094 5329,2094 5327,2093 5205,2080 4919,1905 4818,1876 4626,1822 4730,1735 4592,1640 4416,1518 4036,1493 4067,1207 Z"/>
       </g>
      </g>
      <g class="com.sun.star.drawing.ClosedBezierShape">
       <g id="id13">
        <rect class="BoundingBox" stroke="none" fill="none" x="3850" y="150" width="2309" height="1673"/>
        <path fill="rgb(5,3,1)" stroke="none" d="M 4550,606 C 4547,613 4551,625 4553,632 4582,711 4717,820 4797,832 4821,828 4937,804 5036,752 5028,696 4878,556 4802,518 4791,516 4780,515 4770,515 4709,515 4653,547 4594,582 4579,590 4565,598 4550,606 Z M 5132,970 C 5162,1007 5231,1031 5279,1035 5274,1028 5269,1020 5264,1013 5240,977 5213,937 5181,907 5169,917 5149,942 5132,970 Z M 5814,1360 C 5867,1426 5906,1468 5929,1486 5933,1445 5914,1388 5899,1373 5898,1373 5897,1373 5895,1373 5874,1373 5845,1367 5814,1360 Z M 5799,1822 C 5766,1822 5727,1817 5683,1808 L 5609,1792 5669,1746 C 5680,1737 5691,1729 5701,1722 5732,1701 5744,1693 5747,1663 5739,1653 5730,1642 5722,1632 5679,1577 5642,1530 5585,1495 5243,1366 4904,1296 4656,1245 L 4650,1244 C 4622,1241 4576,1239 4523,1237 4359,1230 4136,1220 4037,1157 L 4031,1153 C 3949,1101 3779,993 3882,827 3911,782 3940,735 3970,689 4067,537 4158,393 4196,303 4252,166 4383,158 4453,153 L 4460,152 C 4483,151 4506,150 4528,150 4697,150 4816,200 4949,327 5162,451 5266,625 5327,730 5345,759 5364,792 5373,798 L 5378,802 5434,854 C 5580,986 5694,1090 5821,1152 5843,1163 5861,1163 5884,1163 5928,1163 5982,1163 6051,1243 L 6065,1259 C 6119,1322 6191,1407 6140,1546 6136,1574 6121,1647 6084,1676 6080,1679 6074,1687 6068,1695 6049,1720 6021,1757 5969,1758 5922,1802 5869,1822 5799,1822 Z"/>
       </g>
      </g>
      <g class="com.sun.star.drawing.ClosedBezierShape">
       <g id="id14">
        <rect class="BoundingBox" stroke="none" fill="none" x="3814" y="115" width="2381" height="1743"/>
        <path fill="rgb(255,255,255)" stroke="none" d="M 5178,965 C 5179,963 5180,961 5182,959 5186,964 5189,969 5193,974 5188,971 5183,968 5178,965 Z M 4588,626 C 4595,621 4603,617 4611,612 4666,580 4719,551 4770,551 4777,551 4784,551 4791,552 4849,583 4956,680 4990,735 4910,772 4825,791 4796,796 4722,782 4609,676 4588,626 Z M 4528,115 C 4506,115 4482,116 4457,117 L 4450,118 C 4378,123 4228,133 4163,290 4127,376 4032,526 3940,670 3910,716 3881,763 3852,808 3730,1005 3935,1134 4012,1183 L 4018,1187 C 4117,1250 4304,1263 4521,1272 4572,1274 4616,1276 4646,1279 L 4649,1280 C 4895,1330 5231,1400 5570,1527 5620,1558 5655,1602 5695,1653 5699,1659 5704,1665 5709,1671 5705,1677 5697,1682 5681,1693 5671,1700 5659,1708 5647,1718 L 5527,1811 5676,1843 C 5722,1852 5762,1857 5798,1857 5873,1857 5931,1837 5983,1792 6044,1786 6078,1741 6096,1716 6100,1711 6105,1704 6107,1702 6151,1666 6168,1593 6174,1555 6231,1399 6148,1301 6092,1236 6088,1231 6083,1226 6079,1221 L 6078,1220 6078,1219 C 6004,1135 5944,1128 5884,1128 5861,1128 5850,1127 5836,1120 5714,1061 5601,958 5458,827 5440,810 5421,793 5402,776 L 5396,771 5394,770 C 5387,761 5371,734 5358,712 5299,612 5189,427 4971,299 4831,166 4706,115 4528,115 Z M 5941,1529 C 5949,1529 5954,1525 5958,1517 5980,1457 5940,1337 5903,1337 5902,1337 5901,1337 5900,1337 5899,1338 5896,1338 5894,1338 5860,1338 5778,1313 5749,1313 5738,1313 5734,1316 5740,1324 5790,1389 5897,1529 5941,1529 Z M 5291,1071 C 5324,1071 5343,1061 5327,1041 5292,995 5252,922 5197,874 5193,869 5188,868 5184,868 5146,868 5091,971 5091,971 5122,1037 5231,1071 5291,1071 Z M 4798,868 C 4798,868 4948,843 5068,774 5095,694 4887,519 4813,485 4798,481 4784,480 4770,480 4681,480 4606,537 4526,579 4459,650 4675,855 4798,868 Z M 4528,185 C 4698,185 4806,238 4928,356 5222,525 5303,799 5355,828 5531,989 5658,1112 5805,1184 5883,1222 5930,1159 6025,1266 6079,1331 6156,1405 6106,1537 6106,1537 6093,1624 6062,1648 6036,1669 6019,1722 5969,1722 5964,1722 5960,1722 5955,1721 5915,1763 5870,1786 5798,1786 5768,1786 5732,1782 5690,1773 5744,1731 5781,1724 5783,1652 5724,1580 5681,1511 5601,1463 5252,1331 4904,1260 4657,1210 4530,1196 4178,1205 4056,1127 3975,1076 3825,986 3912,846 4034,651 4178,437 4228,317 4278,196 4395,192 4462,188 4485,186 4507,185 4528,185 Z"/>
       </g>
      </g>
     </g>
    </g>
   </g>
  </g>
 </g>
</svg>